# xmcd
#
# Track frame offsets:
# 150
# 9890
# 20952
# 31531
# 42841
# 48520
# 56839
# 65751
#
# Disc length: 954 seconds
#
#
# Revision: 0
# Processed by: cddbd v1.5.2PL0 Copyright (c) Steve Scherf et al.
# Submitted via: FreeRIP 2.941 
#
DISCID=6403b808
DTITLE=Madman City - Homestory
DYEAR=2008
DGENRE=Country
TTITLE0=Come Together
TTITLE1=Country Road
TTITLE2=The Wind Cries Mary
TTITLE3=Paint it Black
TTITLE4=Paranoid
TTITLE5=I Walk the Line
TTITLE6=Purple Haze
TTITLE7=Hound Dog
EXTD=Demo:NOT FOR SALE
EXTT0=
EXTT1=
EXTT2=
EXTT3=
EXTT4=
EXTT5=
EXTT6=
EXTT7=
PLAYORDER=
